<svg width="28" height="27" viewBox="0 0 28 27" fill="none" xmlns="http://www.w3.org/2000/svg">
<path d="M12.7467 21.5021H12.7049L12.6755 21.5318L7.91165 26.3557C7.65362 26.616 7.32543 26.7929 6.9685 26.8645C6.61159 26.936 6.24173 26.899 5.90549 26.758C5.56924 26.617 5.28155 26.3782 5.0788 26.0717C4.87605 25.7651 4.7674 25.4045 4.76667 25.0352V21.6021V21.5021H4.66667H2.33333C1.74142 21.5021 1.1735 21.264 0.75457 20.8398C0.335597 20.4155 0.1 19.8399 0.1 19.2393V2.36273C0.1 1.11255 1.10174 0.1 2.33333 0.1H25.6667C26.8983 0.1 27.9 1.11255 27.9 2.36273V19.2393C27.9 19.8399 27.6644 20.4155 27.2454 20.8398C26.8265 21.264 26.2586 21.5021 25.6667 21.5021H12.7467ZM6.56667 24.8964V25.14L6.73782 24.9667L11.6978 19.9442L11.6979 19.9441C11.8666 19.7731 12.0952 19.6771 12.3334 19.6769H25.6667C25.782 19.6769 25.8924 19.6305 25.9735 19.5483C26.0546 19.4661 26.1 19.355 26.1 19.2393V2.36273C26.1 2.24709 26.0546 2.13593 25.9735 2.05379C25.8924 1.9716 25.782 1.92519 25.6667 1.92519H2.33333C2.218 1.92519 2.10765 1.9716 2.02648 2.05379C1.94535 2.13593 1.9 2.24709 1.9 2.36273V19.2393C1.9 19.4797 2.09293 19.6769 2.33333 19.6769H5.66667C5.90495 19.6769 6.13374 19.7727 6.30262 19.9437C6.47155 20.1148 6.56667 20.347 6.56667 20.5895V24.8964Z" fill="#979797" stroke="#979797" stroke-width="0.2"/>
</svg>
