<svg width="27" height="22" viewBox="0 0 27 22" fill="none" xmlns="http://www.w3.org/2000/svg">
<path d="M18.9488 6.20414L18.9488 6.20428C19.1185 6.17971 19.2909 6.16748 19.4662 6.16748L18.9488 6.20414ZM18.9488 6.20414L18.9413 6.20552M18.9488 6.20414L18.9413 6.20552M18.9413 6.20552C18.8568 6.22108 18.7701 6.21898 18.6864 6.19934C18.6027 6.17969 18.5233 6.14283 18.4532 6.09068C18.383 6.03852 18.3234 5.97208 18.2781 5.89509C18.2329 5.81809 18.2031 5.73223 18.1906 5.64264C18.1782 5.55304 18.1834 5.46179 18.206 5.37441C18.2285 5.28704 18.2679 5.20555 18.3215 5.13475C18.375 5.06395 18.4416 5.00535 18.5171 4.96215C18.5925 4.91896 18.6753 4.89198 18.7606 4.8826L18.7606 4.88274M18.9413 6.20552L18.7606 4.88274M18.7606 4.88274L18.7682 4.88162M18.7606 4.88274L18.7682 4.88162M18.7682 4.88162C19.8429 4.72184 20.9391 4.93397 21.8845 5.48525C22.83 6.03661 23.5714 6.89627 23.991 7.92991C24.4107 8.96362 24.4842 10.1118 24.1999 11.1934C23.9155 12.275 23.2898 13.2276 22.4223 13.9019L22.1625 14.1039M18.7682 4.88162L22.1625 14.1039M22.1625 14.1039L22.4614 14.2415M22.1625 14.1039L22.4614 14.2415M22.4614 14.2415C23.7527 14.836 24.8499 15.8025 25.6201 17.025C26.3903 18.2476 26.8002 19.6738 26.8 21.1315V21.1315M22.4614 14.2415L26.8 21.1315M26.8 21.1315C26.8 21.3106 26.7308 21.4812 26.6092 21.6062M26.8 21.1315L26.6092 21.6062M21.2075 15.183L21.2077 15.183C22.4534 15.5681 23.5442 16.3554 24.3189 17.427C25.0935 18.4986 25.5112 19.7976 25.5108 21.1315L21.2075 15.183ZM21.2075 15.183L20.7473 15.0412M21.2075 15.183L20.7473 15.0412M26.6092 21.6062C26.4879 21.731 26.3245 21.8 26.1554 21.8M26.6092 21.6062L26.1554 21.8M26.1554 21.8C25.9863 21.8 25.8229 21.731 25.7016 21.6062M26.1554 21.8L25.7016 21.6062M25.7016 21.6062C25.5801 21.4812 25.5108 21.3106 25.5108 21.1316L25.7016 21.6062ZM20.7473 15.0412V13.3691L21.1014 13.1835C21.1015 13.1834 21.1015 13.1834 21.1016 13.1834C21.8265 12.8057 22.4053 12.1886 22.7458 11.4326C23.0862 10.6766 23.1689 9.82517 22.9807 9.01535C22.7924 8.20548 22.3441 7.48339 21.7066 6.96626C21.0691 6.44905 20.2799 6.16727 19.4662 6.16748L20.7473 15.0412ZM13.5024 11.4689L13.1921 11.6862L13.5466 11.8199C15.4087 12.5222 17.0247 13.7818 18.1861 15.4375C19.3467 17.092 19.9999 19.0663 20.0612 21.1065C20.0582 21.2795 19.9908 21.4437 19.8743 21.5657C19.7572 21.6884 19.5995 21.7587 19.4348 21.7638C19.2701 21.7689 19.1088 21.7084 18.9849 21.5933C18.8617 21.479 18.7849 21.3192 18.7719 21.1467C18.7023 18.8417 17.7632 16.6538 16.1516 15.0466C14.5388 13.4381 12.3792 12.5376 10.1301 12.5376C7.88099 12.5376 5.72137 13.4381 4.10859 15.0466C2.49649 16.6544 1.55731 18.8431 1.48824 21.1489C1.47904 21.3245 1.4036 21.4883 1.27967 21.6059C1.15548 21.7237 0.992507 21.7859 0.825847 21.7808C0.65917 21.7758 0.49983 21.7039 0.382372 21.5785C0.265209 21.4535 0.199233 21.2854 0.200007 21.1096C0.260726 19.0685 0.91391 17.0933 2.0749 15.4379C3.23629 13.782 4.85245 12.5222 6.71474 11.8199L7.06916 11.6862L6.75889 11.4689C5.95149 10.9035 5.29018 10.1433 4.83299 9.25411C4.3758 8.36491 4.13675 7.37393 4.13696 6.36752C4.13717 5.30311 4.40499 4.25712 4.91404 3.3311C5.42308 2.40512 6.15589 1.63084 7.04082 1.08289C7.92572 0.53496 8.93288 0.231798 9.9646 0.202368C10.9963 0.172939 12.0182 0.418221 12.9311 0.91479C13.8441 1.41138 14.6174 2.14259 15.1755 3.038C15.7336 3.93345 16.0574 4.96248 16.115 6.02523C16.1726 7.08799 15.9621 8.1478 15.504 9.10172C15.046 10.0556 14.3563 10.8709 13.5024 11.4689ZM10.1306 1.53562C8.88111 1.53562 7.68391 2.04608 6.8021 2.95282C5.92048 3.85937 5.42615 5.08776 5.42615 6.36748C5.42615 7.64719 5.92048 8.87558 6.8021 9.78213C7.68391 10.6889 8.88111 11.1993 10.1306 11.1993C11.3802 11.1993 12.5774 10.6889 13.4592 9.78213C14.3408 8.87558 14.8351 7.64719 14.8351 6.36748C14.8351 5.08776 14.3408 3.85937 13.4592 2.95282C12.5774 2.04608 11.3802 1.53562 10.1306 1.53562Z" fill="#979797" stroke="#979797" stroke-width="0.4"/>
</svg>
