<svg width="28" height="29" viewBox="0 0 28 29" fill="none" xmlns="http://www.w3.org/2000/svg">
<rect x="0.5" y="0.5" width="27" height="28" stroke="white"/>
<path fill-rule="evenodd" clip-rule="evenodd" d="M13.8903 2.40946C15.1672 2.39275 16.4339 2.64761 17.6119 3.15828C18.7899 3.66895 19.8542 4.42457 20.7389 5.37837C21.6236 6.33217 22.3099 7.46387 22.7554 8.70343C23.2008 9.94299 23.3959 11.264 23.3286 12.5848C23.2406 14.289 22.7185 15.9387 21.8155 17.3662C21.7736 17.4546 21.7215 17.5374 21.6603 17.6127L21.5343 17.7686C21.3259 18.0626 21.103 18.3442 20.8658 18.6132L14.9018 26.1339C14.7924 26.2718 14.6548 26.3828 14.4989 26.4591C14.3431 26.5354 14.1729 26.5749 14.0005 26.5749C13.8282 26.5749 13.658 26.5354 13.5022 26.4591C13.3463 26.3828 13.2087 26.2718 13.0993 26.1339L6.97897 18.4392L6.97663 18.4368C6.85446 18.2854 6.73428 18.1324 6.61613 17.9776L6.46097 17.7807C6.40112 17.7059 6.3502 17.624 6.3093 17.5366C5.35335 16.0937 4.79375 14.409 4.69025 12.6624C4.58675 10.9158 4.94324 9.1729 5.72164 7.6198C6.50005 6.06669 7.67114 4.76172 9.10985 3.84426C10.5486 2.9268 12.2009 2.4313 13.8903 2.41067V2.40946ZM17.5 12.0798C17.5085 12.5613 17.4242 13.0397 17.2522 13.4872C17.0801 13.9346 16.8237 14.342 16.4979 14.6857C16.1721 15.0293 15.7835 15.3023 15.3547 15.4886C14.9259 15.675 14.4656 15.7709 14.0005 15.7709C13.5355 15.7709 13.0752 15.675 12.6464 15.4886C12.2176 15.3023 11.829 15.0293 11.5032 14.6857C11.1774 14.342 10.921 13.9346 10.7489 13.4872C10.5769 13.0397 10.4926 12.5613 10.5011 12.0798C10.5179 11.13 10.8939 10.2249 11.5484 9.55938C12.2028 8.89383 13.0834 8.52094 14.0005 8.52094C14.9177 8.52094 15.7983 8.89383 16.4527 9.55938C17.1072 10.2249 17.4832 11.13 17.5 12.0798Z" fill="#979797"/>
</svg>
