<svg width="23" height="24" viewBox="0 0 23 24" fill="none" xmlns="http://www.w3.org/2000/svg">
<path d="M15.0183 12.7339L15.3455 12.5141C16.5531 11.7027 17.4649 10.5309 17.9478 9.17086C18.4307 7.81089 18.4593 6.33402 18.0295 4.95685C17.5996 3.57964 16.7338 2.37427 15.5587 1.51795C14.3835 0.661608 12.9609 0.199558 11.4997 0.2L11.4995 0.2C10.0383 0.199558 8.61572 0.661608 7.44051 1.51795C6.26533 2.37427 5.39955 3.57964 4.96973 4.95685C4.53991 6.33402 4.56852 7.81089 5.05138 9.17086C5.53425 10.5309 6.44613 11.7027 7.65366 12.5141L7.98085 12.7339L7.61022 12.8681C5.4903 13.6358 3.65198 15.0122 2.33158 16.8197C1.01123 18.6271 0.26909 20.783 0.20034 23.0099L15.0183 12.7339ZM15.0183 12.7339L15.389 12.8681M15.0183 12.7339L15.389 12.8681M15.389 12.8681C17.5091 13.6359 19.3475 15.0124 20.6679 16.8202C21.9883 18.6279 22.7304 20.7841 22.7988 23.0113H22.7988M15.389 12.8681L22.7988 23.0113M22.7988 23.0113L22.799 23.0155M22.7988 23.0113L22.799 23.0155M22.799 23.0155C22.8041 23.1144 22.7892 23.2133 22.755 23.3066C22.7209 23.3999 22.6681 23.4856 22.5998 23.5588C22.5314 23.6319 22.4488 23.691 22.3567 23.7324C22.2646 23.7739 22.165 23.7967 22.0636 23.7997C21.9623 23.8026 21.8615 23.7855 21.767 23.7495C21.6726 23.7135 21.5866 23.6592 21.5139 23.5901C21.4413 23.521 21.3835 23.4384 21.3439 23.3473C21.3042 23.2561 21.2834 23.1581 21.2826 23.0591L21.2827 23.0591M22.799 23.0155L21.2827 23.0591M21.2827 23.0591L21.2826 23.0545M21.2827 23.0591L21.2826 23.0545M21.2826 23.0545C21.2048 20.5425 20.1395 18.1596 18.3132 16.4107C16.4869 14.6619 14.0433 13.6842 11.5002 13.6842C8.95715 13.6842 6.51351 14.6619 4.68729 16.4107C2.86098 18.1596 1.79566 20.5425 1.71791 23.0545L1.7179 23.0546M21.2826 23.0545L1.7179 23.0546M1.7179 23.0546C1.71191 23.2518 1.62683 23.4391 1.48049 23.5752M1.7179 23.0546L1.48049 23.5752M1.48049 23.5752C1.33407 23.7113 1.13834 23.7849 0.936281 23.7789M1.48049 23.5752L0.936281 23.7789M0.936281 23.7789C0.734232 23.7729 0.54341 23.6879 0.405612 23.5434M0.936281 23.7789L0.405612 23.5434M0.405612 23.5434C0.267921 23.3991 0.194372 23.2072 0.200337 23.01L0.405612 23.5434ZM6.18658 6.94142C6.18658 8.33418 6.74697 9.66938 7.74363 10.6534C8.7402 11.6374 10.0913 12.1897 11.4996 12.1897C12.9079 12.1897 14.259 11.6374 15.2556 10.6534C16.2522 9.66938 16.8126 8.33418 16.8126 6.94142C16.8126 5.54865 16.2522 4.21345 15.2556 3.22941C14.259 2.24545 12.9079 1.69311 11.4996 1.69311C10.0913 1.69311 8.7402 2.24545 7.74363 3.22941C6.74697 4.21345 6.18658 5.54865 6.18658 6.94142Z" fill="#979797" stroke="#979797" stroke-width="0.4"/>
</svg>
